<mxfile host="app.diagrams.net" modified="2024-02-01T12:17:45.178Z" agent="Mozilla/5.0 (Windows NT 10.0; Win64; x64) AppleWebKit/537.36 (KHTML, like Gecko) Chrome/120.0.0.0 Safari/537.36 Edg/120.0.0.0" etag="P3HNWcAfwDpHMm_HSQ30" version="22.1.20" type="github">
  <diagram name="第 1 页" id="-onAROi8wxiJjW0Dqyux">
    <mxGraphModel dx="3106" dy="1961" grid="0" gridSize="10" guides="1" tooltips="1" connect="1" arrows="1" fold="1" page="0" pageScale="1" pageWidth="827" pageHeight="1169" math="0" shadow="0">
      <root>
        <mxCell id="0" />
        <mxCell id="1" parent="0" />
        <mxCell id="bs5nFUalNf5M3_HFQCwc-6" value="server（golang）" style="rounded=1;whiteSpace=wrap;html=1;sketch=1;hachureGap=4;jiggle=2;curveFitting=1;fontFamily=Architects Daughter;fontSource=https%3A%2F%2Ffonts.googleapis.com%2Fcss%3Ffamily%3DArchitects%2BDaughter;fontSize=20;" vertex="1" parent="1">
          <mxGeometry x="-654" y="-166" width="317" height="235" as="geometry" />
        </mxCell>
        <mxCell id="bs5nFUalNf5M3_HFQCwc-7" style="edgeStyle=none;curved=1;rounded=0;sketch=1;hachureGap=4;jiggle=2;curveFitting=1;orthogonalLoop=1;jettySize=auto;html=1;entryX=0;entryY=0.5;entryDx=0;entryDy=0;fontFamily=Architects Daughter;fontSource=https%3A%2F%2Ffonts.googleapis.com%2Fcss%3Ffamily%3DArchitects%2BDaughter;fontSize=16;startSize=8;endSize=8;" edge="1" parent="1" source="bs5nFUalNf5M3_HFQCwc-1" target="bs5nFUalNf5M3_HFQCwc-2">
          <mxGeometry relative="1" as="geometry" />
        </mxCell>
        <mxCell id="bs5nFUalNf5M3_HFQCwc-1" value="model" style="rounded=1;whiteSpace=wrap;html=1;sketch=1;hachureGap=4;jiggle=2;curveFitting=1;fontFamily=Architects Daughter;fontSource=https%3A%2F%2Ffonts.googleapis.com%2Fcss%3Ffamily%3DArchitects%2BDaughter;fontSize=20;" vertex="1" parent="1">
          <mxGeometry x="-638" y="-151" width="120" height="60" as="geometry" />
        </mxCell>
        <mxCell id="bs5nFUalNf5M3_HFQCwc-11" style="edgeStyle=none;curved=1;rounded=0;sketch=1;hachureGap=4;jiggle=2;curveFitting=1;orthogonalLoop=1;jettySize=auto;html=1;entryX=0;entryY=0.5;entryDx=0;entryDy=0;fontFamily=Architects Daughter;fontSource=https%3A%2F%2Ffonts.googleapis.com%2Fcss%3Ffamily%3DArchitects%2BDaughter;fontSize=16;startSize=8;endSize=8;" edge="1" parent="1" source="bs5nFUalNf5M3_HFQCwc-2" target="bs5nFUalNf5M3_HFQCwc-4">
          <mxGeometry relative="1" as="geometry" />
        </mxCell>
        <mxCell id="bs5nFUalNf5M3_HFQCwc-2" value="git（golang）" style="rounded=1;whiteSpace=wrap;html=1;sketch=1;hachureGap=4;jiggle=2;curveFitting=1;fontFamily=Architects Daughter;fontSource=https%3A%2F%2Ffonts.googleapis.com%2Fcss%3Ffamily%3DArchitects%2BDaughter;fontSize=20;" vertex="1" parent="1">
          <mxGeometry x="-290" y="-91" width="136" height="60" as="geometry" />
        </mxCell>
        <mxCell id="bs5nFUalNf5M3_HFQCwc-8" style="edgeStyle=none;curved=1;rounded=0;sketch=1;hachureGap=4;jiggle=2;curveFitting=1;orthogonalLoop=1;jettySize=auto;html=1;entryX=0;entryY=0.5;entryDx=0;entryDy=0;fontFamily=Architects Daughter;fontSource=https%3A%2F%2Ffonts.googleapis.com%2Fcss%3Ffamily%3DArchitects%2BDaughter;fontSize=16;startSize=8;endSize=8;" edge="1" parent="1" source="bs5nFUalNf5M3_HFQCwc-3" target="bs5nFUalNf5M3_HFQCwc-2">
          <mxGeometry relative="1" as="geometry" />
        </mxCell>
        <mxCell id="bs5nFUalNf5M3_HFQCwc-35" style="edgeStyle=none;curved=1;rounded=0;sketch=1;hachureGap=4;jiggle=2;curveFitting=1;orthogonalLoop=1;jettySize=auto;html=1;entryX=0;entryY=0.5;entryDx=0;entryDy=0;fontFamily=Architects Daughter;fontSource=https%3A%2F%2Ffonts.googleapis.com%2Fcss%3Ffamily%3DArchitects%2BDaughter;fontSize=16;startSize=8;endSize=8;" edge="1" parent="1" source="bs5nFUalNf5M3_HFQCwc-3" target="bs5nFUalNf5M3_HFQCwc-33">
          <mxGeometry relative="1" as="geometry" />
        </mxCell>
        <mxCell id="bs5nFUalNf5M3_HFQCwc-3" value="space" style="rounded=1;whiteSpace=wrap;html=1;sketch=1;hachureGap=4;jiggle=2;curveFitting=1;fontFamily=Architects Daughter;fontSource=https%3A%2F%2Ffonts.googleapis.com%2Fcss%3Ffamily%3DArchitects%2BDaughter;fontSize=20;" vertex="1" parent="1">
          <mxGeometry x="-638" y="-75" width="120" height="60" as="geometry" />
        </mxCell>
        <mxCell id="bs5nFUalNf5M3_HFQCwc-4" value="obs" style="rounded=1;whiteSpace=wrap;html=1;sketch=1;hachureGap=4;jiggle=2;curveFitting=1;fontFamily=Architects Daughter;fontSource=https%3A%2F%2Ffonts.googleapis.com%2Fcss%3Ffamily%3DArchitects%2BDaughter;fontSize=20;" vertex="1" parent="1">
          <mxGeometry x="87" y="-91" width="120" height="60" as="geometry" />
        </mxCell>
        <mxCell id="bs5nFUalNf5M3_HFQCwc-34" style="edgeStyle=none;curved=1;rounded=0;sketch=1;hachureGap=4;jiggle=2;curveFitting=1;orthogonalLoop=1;jettySize=auto;html=1;entryX=0;entryY=0.5;entryDx=0;entryDy=0;fontFamily=Architects Daughter;fontSource=https%3A%2F%2Ffonts.googleapis.com%2Fcss%3Ffamily%3DArchitects%2BDaughter;fontSize=16;startSize=8;endSize=8;" edge="1" parent="1" source="bs5nFUalNf5M3_HFQCwc-5" target="bs5nFUalNf5M3_HFQCwc-33">
          <mxGeometry relative="1" as="geometry" />
        </mxCell>
        <mxCell id="bs5nFUalNf5M3_HFQCwc-5" value="k8s" style="rounded=1;whiteSpace=wrap;html=1;sketch=1;hachureGap=4;jiggle=2;curveFitting=1;fontFamily=Architects Daughter;fontSource=https%3A%2F%2Ffonts.googleapis.com%2Fcss%3Ffamily%3DArchitects%2BDaughter;fontSize=20;" vertex="1" parent="1">
          <mxGeometry x="-654" y="94" width="764" height="60" as="geometry" />
        </mxCell>
        <mxCell id="bs5nFUalNf5M3_HFQCwc-9" value="Actor" style="shape=umlActor;verticalLabelPosition=bottom;verticalAlign=top;html=1;outlineConnect=0;sketch=1;hachureGap=4;jiggle=2;curveFitting=1;fontFamily=Architects Daughter;fontSource=https%3A%2F%2Ffonts.googleapis.com%2Fcss%3Ffamily%3DArchitects%2BDaughter;fontSize=20;" vertex="1" parent="1">
          <mxGeometry x="-307" y="-436" width="30" height="60" as="geometry" />
        </mxCell>
        <mxCell id="bs5nFUalNf5M3_HFQCwc-10" style="edgeStyle=none;curved=1;rounded=0;sketch=1;hachureGap=4;jiggle=2;curveFitting=1;orthogonalLoop=1;jettySize=auto;html=1;entryX=0.379;entryY=0;entryDx=0;entryDy=0;entryPerimeter=0;fontFamily=Architects Daughter;fontSource=https%3A%2F%2Ffonts.googleapis.com%2Fcss%3Ffamily%3DArchitects%2BDaughter;fontSize=16;startSize=8;endSize=8;" edge="1" parent="1" source="bs5nFUalNf5M3_HFQCwc-9" target="bs5nFUalNf5M3_HFQCwc-15">
          <mxGeometry relative="1" as="geometry" />
        </mxCell>
        <mxCell id="bs5nFUalNf5M3_HFQCwc-13" value="user/org" style="rounded=1;whiteSpace=wrap;html=1;sketch=1;hachureGap=4;jiggle=2;curveFitting=1;fontFamily=Architects Daughter;fontSource=https%3A%2F%2Ffonts.googleapis.com%2Fcss%3Ffamily%3DArchitects%2BDaughter;fontSize=20;" vertex="1" parent="1">
          <mxGeometry x="-636" y="-5" width="120" height="60" as="geometry" />
        </mxCell>
        <mxCell id="bs5nFUalNf5M3_HFQCwc-15" value="frontend（ts+html）" style="rounded=1;whiteSpace=wrap;html=1;sketch=1;hachureGap=4;jiggle=2;curveFitting=1;fontFamily=Architects Daughter;fontSource=https%3A%2F%2Ffonts.googleapis.com%2Fcss%3Ffamily%3DArchitects%2BDaughter;fontSize=20;" vertex="1" parent="1">
          <mxGeometry x="-651" y="-267" width="718" height="42" as="geometry" />
        </mxCell>
        <mxCell id="bs5nFUalNf5M3_HFQCwc-16" style="edgeStyle=none;curved=1;rounded=0;sketch=1;hachureGap=4;jiggle=2;curveFitting=1;orthogonalLoop=1;jettySize=auto;html=1;entryX=0.457;entryY=0;entryDx=0;entryDy=0;entryPerimeter=0;fontFamily=Architects Daughter;fontSource=https%3A%2F%2Ffonts.googleapis.com%2Fcss%3Ffamily%3DArchitects%2BDaughter;fontSize=16;startSize=8;endSize=8;exitX=0.439;exitY=1.167;exitDx=0;exitDy=0;exitPerimeter=0;" edge="1" parent="1" source="bs5nFUalNf5M3_HFQCwc-15" target="bs5nFUalNf5M3_HFQCwc-6">
          <mxGeometry relative="1" as="geometry" />
        </mxCell>
        <mxCell id="bs5nFUalNf5M3_HFQCwc-17" style="edgeStyle=none;curved=1;rounded=0;sketch=1;hachureGap=4;jiggle=2;curveFitting=1;orthogonalLoop=1;jettySize=auto;html=1;fontFamily=Architects Daughter;fontSource=https%3A%2F%2Ffonts.googleapis.com%2Fcss%3Ffamily%3DArchitects%2BDaughter;fontSize=16;startSize=8;endSize=8;" edge="1" parent="1" source="bs5nFUalNf5M3_HFQCwc-15" target="bs5nFUalNf5M3_HFQCwc-2">
          <mxGeometry relative="1" as="geometry" />
        </mxCell>
        <mxCell id="bs5nFUalNf5M3_HFQCwc-18" style="edgeStyle=none;curved=1;rounded=0;sketch=1;hachureGap=4;jiggle=2;curveFitting=1;orthogonalLoop=1;jettySize=auto;html=1;entryX=0.431;entryY=0.033;entryDx=0;entryDy=0;entryPerimeter=0;fontFamily=Architects Daughter;fontSource=https%3A%2F%2Ffonts.googleapis.com%2Fcss%3Ffamily%3DArchitects%2BDaughter;fontSize=16;startSize=8;endSize=8;" edge="1" parent="1" source="bs5nFUalNf5M3_HFQCwc-15" target="bs5nFUalNf5M3_HFQCwc-5">
          <mxGeometry relative="1" as="geometry" />
        </mxCell>
        <mxCell id="bs5nFUalNf5M3_HFQCwc-20" value="&lt;h1&gt;送检计划&lt;/h1&gt;&lt;div&gt;1. 年后完成space开发&lt;/div&gt;&lt;div&gt;2. 3月中旬送检&lt;/div&gt;&lt;div&gt;3. 5月具备发布质量&lt;/div&gt;" style="text;html=1;strokeColor=none;fillColor=none;spacing=5;spacingTop=-20;whiteSpace=wrap;overflow=hidden;rounded=0;fontSize=20;fontFamily=Architects Daughter;" vertex="1" parent="1">
          <mxGeometry x="492" y="-490" width="319" height="189" as="geometry" />
        </mxCell>
        <mxCell id="bs5nFUalNf5M3_HFQCwc-21" value="&lt;h1&gt;模块介绍&lt;/h1&gt;&lt;div&gt;1. model，用户通过model的接口将模型文件上传到git，git将大文件上传到obs中存放&lt;/div&gt;&lt;div&gt;2. space，用户上传app代码，server将代码部署成pod供用户访问呢&lt;/div&gt;&lt;div&gt;&lt;br&gt;&lt;/div&gt;&lt;div&gt;风险识别：&lt;/div&gt;&lt;div&gt;1. 用户仓库分为私有和公有，但是文件都统一存放在一个公共的obs桶中&lt;/div&gt;&lt;div&gt;2. space能够将任意用户代码进行部署，并通过服务对外访问，容器需加固(或使用kata）&lt;/div&gt;&lt;div&gt;3. 不同用户启动的space之间需要隔离&lt;/div&gt;&lt;div&gt;4. git服务支持上传任意类型的文件&lt;/div&gt;&lt;div&gt;5. k8s加固&lt;/div&gt;&lt;div&gt;6. 自建docker registry&lt;/div&gt;&lt;div&gt;7. space-server和它创建的容器之间要做网络隔离&lt;/div&gt;" style="text;html=1;strokeColor=none;fillColor=none;spacing=5;spacingTop=-20;whiteSpace=wrap;overflow=hidden;rounded=0;fontSize=20;fontFamily=Architects Daughter;" vertex="1" parent="1">
          <mxGeometry x="492" y="-171" width="667" height="412" as="geometry" />
        </mxCell>
        <mxCell id="bs5nFUalNf5M3_HFQCwc-26" style="edgeStyle=none;curved=1;rounded=0;sketch=1;hachureGap=4;jiggle=2;curveFitting=1;orthogonalLoop=1;jettySize=auto;html=1;entryX=0.5;entryY=0;entryDx=0;entryDy=0;fontFamily=Architects Daughter;fontSource=https%3A%2F%2Ffonts.googleapis.com%2Fcss%3Ffamily%3DArchitects%2BDaughter;fontSize=16;startSize=8;endSize=8;" edge="1" parent="1" source="bs5nFUalNf5M3_HFQCwc-25" target="bs5nFUalNf5M3_HFQCwc-4">
          <mxGeometry relative="1" as="geometry" />
        </mxCell>
        <mxCell id="bs5nFUalNf5M3_HFQCwc-25" value="CDN" style="rounded=1;whiteSpace=wrap;html=1;sketch=1;hachureGap=4;jiggle=2;curveFitting=1;fontFamily=Architects Daughter;fontSource=https%3A%2F%2Ffonts.googleapis.com%2Fcss%3Ffamily%3DArchitects%2BDaughter;fontSize=20;" vertex="1" parent="1">
          <mxGeometry x="87" y="-191" width="120" height="60" as="geometry" />
        </mxCell>
        <mxCell id="bs5nFUalNf5M3_HFQCwc-27" style="edgeStyle=none;curved=1;rounded=0;sketch=1;hachureGap=4;jiggle=2;curveFitting=1;orthogonalLoop=1;jettySize=auto;html=1;entryX=-0.05;entryY=0.35;entryDx=0;entryDy=0;entryPerimeter=0;fontFamily=Architects Daughter;fontSource=https%3A%2F%2Ffonts.googleapis.com%2Fcss%3Ffamily%3DArchitects%2BDaughter;fontSize=16;startSize=8;endSize=8;" edge="1" parent="1" source="bs5nFUalNf5M3_HFQCwc-15" target="bs5nFUalNf5M3_HFQCwc-25">
          <mxGeometry relative="1" as="geometry" />
        </mxCell>
        <mxCell id="bs5nFUalNf5M3_HFQCwc-28" value="ascend 910B" style="rounded=1;whiteSpace=wrap;html=1;sketch=1;hachureGap=4;jiggle=2;curveFitting=1;fontFamily=Architects Daughter;fontSource=https%3A%2F%2Ffonts.googleapis.com%2Fcss%3Ffamily%3DArchitects%2BDaughter;fontSize=20;" vertex="1" parent="1">
          <mxGeometry x="-539" y="220" width="120" height="60" as="geometry" />
        </mxCell>
        <mxCell id="bs5nFUalNf5M3_HFQCwc-29" value="ascend 910B" style="rounded=1;whiteSpace=wrap;html=1;sketch=1;hachureGap=4;jiggle=2;curveFitting=1;fontFamily=Architects Daughter;fontSource=https%3A%2F%2Ffonts.googleapis.com%2Fcss%3Ffamily%3DArchitects%2BDaughter;fontSize=20;" vertex="1" parent="1">
          <mxGeometry x="-529" y="230" width="120" height="60" as="geometry" />
        </mxCell>
        <mxCell id="bs5nFUalNf5M3_HFQCwc-31" style="edgeStyle=none;curved=1;rounded=0;sketch=1;hachureGap=4;jiggle=2;curveFitting=1;orthogonalLoop=1;jettySize=auto;html=1;entryX=0.25;entryY=1;entryDx=0;entryDy=0;fontFamily=Architects Daughter;fontSource=https%3A%2F%2Ffonts.googleapis.com%2Fcss%3Ffamily%3DArchitects%2BDaughter;fontSize=16;startSize=8;endSize=8;" edge="1" parent="1" source="bs5nFUalNf5M3_HFQCwc-30" target="bs5nFUalNf5M3_HFQCwc-5">
          <mxGeometry relative="1" as="geometry" />
        </mxCell>
        <mxCell id="bs5nFUalNf5M3_HFQCwc-30" value="ascend 910B" style="rounded=1;whiteSpace=wrap;html=1;sketch=1;hachureGap=4;jiggle=2;curveFitting=1;fontFamily=Architects Daughter;fontSource=https%3A%2F%2Ffonts.googleapis.com%2Fcss%3Ffamily%3DArchitects%2BDaughter;fontSize=20;" vertex="1" parent="1">
          <mxGeometry x="-519" y="240" width="120" height="60" as="geometry" />
        </mxCell>
        <mxCell id="bs5nFUalNf5M3_HFQCwc-32" value="WAF" style="rounded=0;whiteSpace=wrap;html=1;sketch=1;hachureGap=4;jiggle=2;curveFitting=1;fontFamily=Architects Daughter;fontSource=https%3A%2F%2Ffonts.googleapis.com%2Fcss%3Ffamily%3DArchitects%2BDaughter;fontSize=20;" vertex="1" parent="1">
          <mxGeometry x="-746" y="-328" width="935" height="30" as="geometry" />
        </mxCell>
        <mxCell id="bs5nFUalNf5M3_HFQCwc-33" value="docker registry" style="rounded=1;whiteSpace=wrap;html=1;sketch=1;hachureGap=4;jiggle=2;curveFitting=1;fontFamily=Architects Daughter;fontSource=https%3A%2F%2Ffonts.googleapis.com%2Fcss%3Ffamily%3DArchitects%2BDaughter;fontSize=20;" vertex="1" parent="1">
          <mxGeometry x="-156" y="2" width="175" height="60" as="geometry" />
        </mxCell>
      </root>
    </mxGraphModel>
  </diagram>
</mxfile>
